# xmcd
#
# Track frame offsets:
#	150
#	32237
#	55227
#	76997
#	97325
#	121770
#	143237
#	174882
#	194655
#	232360
#	254777
#
# Disc length: 3595 seconds
#
# Revision: 1
# Processed by: cddbd v1.4PL0 Copyright (c) Steve Scherf et al.
# Submitted via: audiograbber 1.80
#
DISCID=a40e090b
DTITLE=Charlee Dee - Rollin' and Tumblin' Blues
DYEAR=1900
DGENRE=
TTITLE0=St. Louis Blues
TTITLE1=I Don't Want to Hear About Yours
TTITLE2=A Woman is in Love With You
TTITLE3=Mutcika
TTITLE4=Poison Ivy
TTITLE5=Hey Everybody
TTITLE6=Rollin' and Tumblin' Blues
TTITLE7=Jealous Man
TTITLE8=If Trouble Was Money
TTITLE9=Buzzard Luck
TTITLE10=Shake Your Money Maker
EXTD=
EXTT0=
EXTT1=
EXTT2=
EXTT3=
EXTT4=
EXTT5=
EXTT6=
EXTT7=
EXTT8=
EXTT9=
EXTT10=
PLAYORDER=
